<?xml version="1.0" encoding="UTF-8"?>
<svg version="1.1" xmlns="http://www.w3.org/2000/svg" width="512" height="512">
<path d="M0 0 C1.01790619 0.00215515 2.03581238 0.0043103 3.08456421 0.00653076 C17.69363523 0.05620146 32.02575853 0.30709809 46.375 3.3125 C47.34985352 3.51117676 48.32470703 3.70985352 49.32910156 3.91455078 C97.7109774 14.03517194 141.69928269 35.9516877 177.375 70.3125 C178.3640332 71.26068604 178.3640332 71.26068604 179.37304688 72.22802734 C188.86130305 81.37247479 197.6012044 90.66984009 205.375 101.3125 C206.23306152 102.46355017 207.09113451 103.61459177 207.94921875 104.765625 C213.98736829 112.95680614 219.34595521 121.47054105 224.375 130.3125 C224.73948242 130.94430176 225.10396484 131.57610352 225.47949219 132.22705078 C247.08534998 169.97532572 256.85198095 212.74189997 256.6875 255.9375 C256.68534485 256.95540619 256.6831897 257.97331238 256.68096924 259.02206421 C256.63129854 273.63113523 256.38040191 287.96325853 253.375 302.3125 C253.07698486 303.77478027 253.07698486 303.77478027 252.77294922 305.26660156 C242.65232806 353.6484774 220.7358123 397.63678269 186.375 433.3125 C185.74287598 433.97185547 185.11075195 434.63121094 184.45947266 435.31054688 C175.31502521 444.79880305 166.01765991 453.5387044 155.375 461.3125 C154.22394983 462.17056152 153.07290823 463.02863451 151.921875 463.88671875 C143.73224019 469.92427396 135.22961724 475.30707302 126.375 480.3125 C125.66778809 480.7146875 124.96057617 481.116875 124.23193359 481.53125 C101.09654164 494.5566741 75.92537591 503.30551461 49.9375 508.625 C49.21860596 508.77235596 48.49971191 508.91971191 47.7590332 509.0715332 C33.08339502 511.86090125 18.55831162 512.66142619 3.64770508 512.62817383 C0.70811513 512.6250221 -2.2304558 512.64854926 -5.16992188 512.67382812 C-18.54306192 512.71848737 -31.43916711 511.51301542 -44.625 509.3125 C-46.33055054 509.03031616 -46.33055054 509.03031616 -48.07055664 508.74243164 C-91.33802759 500.97044532 -132.38793216 480.98345309 -165.625 452.3125 C-166.37007813 451.67828125 -167.11515625 451.0440625 -167.8828125 450.390625 C-181.38779833 438.57948485 -194.05918743 425.82889772 -204.625 411.3125 C-205.48149066 410.16255169 -206.33826433 409.01281411 -207.1953125 407.86328125 C-213.23534209 399.67315742 -218.61867614 391.16870382 -223.625 382.3125 C-224.0271875 381.60528809 -224.429375 380.89807617 -224.84375 380.16943359 C-237.8691741 357.03404164 -246.61801461 331.86287591 -251.9375 305.875 C-252.08485596 305.15610596 -252.23221191 304.43721191 -252.3840332 303.6965332 C-255.35789088 288.05024391 -255.99800362 272.57681954 -255.9375 256.6875 C-255.93534485 255.66959381 -255.9331897 254.65168762 -255.93096924 253.60293579 C-255.88129854 238.99386477 -255.63040191 224.66174147 -252.625 210.3125 C-252.42632324 209.33764648 -252.22764648 208.36279297 -252.02294922 207.35839844 C-241.90232806 158.9765226 -219.9858123 114.98821731 -185.625 79.3125 C-184.99287598 78.65314453 -184.36075195 77.99378906 -183.70947266 77.31445312 C-174.56502521 67.82619695 -165.26765991 59.0862956 -154.625 51.3125 C-153.47394983 50.45443848 -152.32290823 49.59636549 -151.171875 48.73828125 C-142.98224019 42.70072604 -134.47961724 37.31792698 -125.625 32.3125 C-124.91778809 31.9103125 -124.21057617 31.508125 -123.48193359 31.09375 C-100.34654164 18.0683259 -75.17537591 9.31948539 -49.1875 4 C-48.46860596 3.85264404 -47.74971191 3.70528809 -47.0090332 3.5534668 C-31.36274391 0.57960912 -15.88931954 -0.06050362 0 0 Z " fill="#03B8FF" transform="translate(255.625,-0.3125)"/>
<path d="M0 0 C4.28760968 1.99873534 7.10681349 4.23100404 9.703125 8.28125 C10.70317804 11.28140912 10.81888085 13.25548756 10.80078125 16.38671875 C10.79828369 17.27254639 10.79578613 18.15837402 10.79321289 19.07104492 C10.78410889 20.1922876 10.77500488 21.31353027 10.765625 22.46875 C10.745 26.036875 10.724375 29.605 10.703125 33.28125 C21.263125 33.28125 31.823125 33.28125 42.703125 33.28125 C42.54556023 25.98156448 42.54556023 25.98156448 42.34277344 18.68310547 C42.27590241 12.53204925 42.54690169 8.92866334 46.703125 4.28125 C52.18731148 -0.55005714 55.51315431 -1.07826636 62.7265625 -0.9921875 C69.1604668 -0.40114642 72.56211328 3.95234118 76.50390625 8.59765625 C78.6742645 11.64464129 78.82379026 14.33680341 78.80078125 17.94921875 C78.79755859 18.84189453 78.79433594 19.73457031 78.79101562 20.65429688 C78.78263672 21.58306641 78.77425781 22.51183594 78.765625 23.46875 C78.76111328 24.40912109 78.75660156 25.34949219 78.75195312 26.31835938 C78.74017126 28.63938712 78.72372058 30.96028644 78.703125 33.28125 C79.92 33.26964844 81.136875 33.25804687 82.390625 33.24609375 C97.14431996 33.26878177 111.87506788 39.28109262 122.703125 49.28125 C123.37472656 49.86261719 124.04632813 50.44398438 124.73828125 51.04296875 C134.30883722 59.83902886 139.60027906 70.81727564 142.703125 83.28125 C142.8781958 83.90443115 143.0532666 84.5276123 143.23364258 85.16967773 C147.33599888 103.62068122 141.22738794 120.32609751 132.703125 136.28125 C133.41984375 136.39339844 134.1365625 136.50554687 134.875 136.62109375 C148.00573103 139.68614008 158.43966685 150.63205181 165.60351562 161.48876953 C175.23947731 177.196414 181.82169226 195.81958775 178.30615234 214.37670898 C173.80098271 233.07695068 163.56797838 248.20651875 147.265625 258.65625 C136.09669744 265.17584804 126.0664722 267.44816554 113.2734375 267.37890625 C111.787939 267.37678383 111.787939 267.37678383 110.27243042 267.37461853 C107.12429727 267.36904252 103.97623648 267.35649442 100.828125 267.34375 C98.68750103 267.3387319 96.54687594 267.33416954 94.40625 267.33007812 C89.17185051 267.31908094 83.93749293 267.30236675 78.703125 267.28125 C78.72669067 268.23378662 78.72669067 268.23378662 78.75073242 269.20556641 C78.8134109 272.1057023 78.85221917 275.00569524 78.890625 277.90625 C78.91576172 278.90527344 78.94089844 279.90429688 78.96679688 280.93359375 C79.02974025 287.26989355 78.70236163 292.0683273 74.16796875 296.92578125 C67.92459777 301.70012377 63.50946476 301.98719685 55.703125 301.28125 C50.20851551 298.88360222 47.04875346 294.70342688 44.703125 289.28125 C44.12921998 285.41391675 44.22567532 281.6793174 44.390625 277.78125 C44.49375 274.31625 44.596875 270.85125 44.703125 267.28125 C33.483125 267.28125 22.263125 267.28125 10.703125 267.28125 C10.86029013 274.16179622 10.86029013 274.16179622 11.06347656 281.04101562 C11.13549866 287.33714124 10.34368208 292.04727279 6.703125 297.28125 C1.86966516 301.82177288 -3.62587096 301.79401118 -9.984375 301.765625 C-15.18268599 301.00549462 -18.14226539 298.35491911 -21.296875 294.28125 C-23.26344123 291.04021381 -23.53405281 288.62725268 -23.4921875 284.859375 C-23.48574219 283.83457031 -23.47929687 282.80976563 -23.47265625 281.75390625 C-23.45589844 280.69042969 -23.43914062 279.62695312 -23.421875 278.53125 C-23.41285156 277.45230469 -23.40382812 276.37335938 -23.39453125 275.26171875 C-23.37098805 272.60133722 -23.33810299 269.94140664 -23.296875 267.28125 C-23.98201172 267.31790771 -24.66714844 267.35456543 -25.37304688 267.39233398 C-28.51385526 267.53892978 -31.65394312 267.62921299 -34.796875 267.71875 C-36.41335937 267.80672852 -36.41335937 267.80672852 -38.0625 267.89648438 C-43.75384574 268.01794602 -47.48009309 267.79629204 -51.953125 264.06640625 C-56.18412751 259.69957879 -57.58673256 255.96827477 -57.734375 249.90625 C-57.59992555 244.03001826 -56.41243973 241.48255566 -52.296875 237.28125 C-44.296875 233.28125 -44.296875 233.28125 -23.296875 233.28125 C-23.296875 178.50125 -23.296875 123.72125 -23.296875 67.28125 C-30.886875 67.28125 -38.476875 67.28125 -46.296875 67.28125 C-55.50303204 61.52740185 -55.50303204 61.52740185 -56.89453125 57.37109375 C-58.02354236 51.50681274 -58.26983207 46.26319958 -55.609375 40.84375 C-52.19832141 37.06393386 -49.37883166 34.22591367 -44.296875 33.28125 C-42.63698218 33.20213457 -40.9742463 33.17346115 -39.3125 33.18359375 C-38.37792969 33.18681641 -37.44335938 33.19003906 -36.48046875 33.19335938 C-35.51238281 33.20173828 -34.54429687 33.21011719 -33.546875 33.21875 C-32.07154297 33.22551758 -32.07154297 33.22551758 -30.56640625 33.23242188 C-28.14316709 33.24418517 -25.72005227 33.26062316 -23.296875 33.28125 C-23.31782227 32.61593262 -23.33876953 31.95061523 -23.36035156 31.26513672 C-23.44388109 28.22899698 -23.49565103 25.19309957 -23.546875 22.15625 C-23.58039063 21.10953125 -23.61390625 20.0628125 -23.6484375 18.984375 C-23.72767679 12.72447126 -23.53201816 9.01691007 -19.296875 4.28125 C-13.37589944 -0.93484751 -7.74501232 -2.4236093 0 0 Z " fill="#FDFEFF" transform="translate(196.296875,107.71875)"/>
<path d="M0 0 C26.09300874 -0.12032643 26.09300874 -0.12032643 37.24023438 -0.14648438 C44.83787341 -0.16439756 52.43540368 -0.18555881 60.03295898 -0.22631836 C66.16025546 -0.25898343 72.28743524 -0.27686821 78.41481209 -0.28463173 C80.74911396 -0.29016237 83.08340965 -0.30096233 85.41766167 -0.31719017 C88.6945143 -0.33905904 91.97088853 -0.34196292 95.24780273 -0.34057617 C96.20662354 -0.351362 97.16544434 -0.36214783 98.15332031 -0.3732605 C109.03206136 -0.32364729 117.69299096 3.28164514 125.7578125 10.59375 C131.57183288 16.78758075 134.18139776 23.94655747 134.625 32.375 C134.32355302 41.5045372 129.95135025 49.82814369 123.76171875 56.47265625 C114.86020559 64.18993263 106.00553336 66.3130289 94.56665039 66.22705078 C93.5415033 66.22734283 92.5163562 66.22763489 91.46014404 66.22793579 C88.08922712 66.22654824 84.71853431 66.21101396 81.34765625 66.1953125 C79.00353618 66.19158033 76.65941455 66.18873432 74.31529236 66.18673706 C68.1585964 66.17911668 62.00199545 66.15948182 55.84533691 66.1373291 C48.45138258 66.11323057 41.0573964 66.1040821 33.663414 66.09242249 C22.44221001 66.07305658 11.22121431 66.03472268 0 66 C0 44.22 0 22.44 0 0 Z " fill="#03B8FF" transform="translate(207,273)"/>
<path d="M0 0 C17.7771156 -0.16043524 17.7771156 -0.16043524 25.41210938 -0.1953125 C30.6019751 -0.21913342 35.79155591 -0.24717397 40.98120117 -0.30175781 C45.16985361 -0.34553275 49.35820011 -0.36920315 53.54706383 -0.37950897 C55.13731381 -0.38684404 56.72754891 -0.40116625 58.31766701 -0.42292023 C71.61111855 -0.5973892 81.90264271 0.94963624 91.83203125 10.484375 C99.08459834 18.89996636 100.8456447 28.2187918 100.22216797 39.04296875 C99.26845877 47.44399397 94.53342878 55.70485646 88 61 C80.21832084 65.66696506 73.98453427 68.12934359 64.93652344 68.11352539 C63.88226166 68.11374443 63.88226166 68.11374443 62.80670166 68.1139679 C60.49089437 68.11327299 58.17516819 68.10550038 55.859375 68.09765625 C54.25083459 68.09579057 52.64229362 68.09436737 51.03375244 68.09336853 C46.80544458 68.08955516 42.57717121 68.07973495 38.34887695 68.06866455 C33.27274285 68.05662393 28.19659719 68.05204257 23.12045288 68.04621124 C15.41361129 68.03652257 7.70684533 68.01735776 0 68 C0 45.56 0 23.12 0 0 Z " fill="#03B8FF" transform="translate(207,173)"/>
</svg>
